<svg width="182" height="337" viewBox="0 0 182 337" fill="none" xmlns="http://www.w3.org/2000/svg">
<path fill-rule="evenodd" clip-rule="evenodd" d="M177.538 4.39607C178.739 5.59452 179.692 7.01823 180.343 8.58566C180.993 10.1531 181.328 11.8334 181.328 13.5304C181.328 15.2275 180.993 16.9078 180.343 18.4752C179.692 20.0427 178.739 21.4664 177.538 22.6648L31.8263 168.351L177.538 314.036C179.96 316.459 181.321 319.745 181.321 323.171C181.321 326.597 179.96 329.882 177.538 332.305C175.115 334.728 171.829 336.089 168.403 336.089C164.977 336.089 161.692 334.728 159.269 332.305L4.44891 177.485C3.24743 176.286 2.29417 174.863 1.64376 173.295C0.993352 171.728 0.658569 170.048 0.658569 168.351C0.658569 166.653 0.993352 164.973 1.64376 163.406C2.29417 161.838 3.24743 160.415 4.44891 159.216L159.269 4.39607C160.467 3.19458 161.891 2.24133 163.459 1.59092C165.026 0.940508 166.706 0.605713 168.403 0.605713C170.1 0.605713 171.781 0.940508 173.348 1.59092C174.916 2.24133 176.339 3.19458 177.538 4.39607Z" fill="black"/>
</svg>
