<svg width="182" height="182" viewBox="0 0 182 182" fill="none" xmlns="http://www.w3.org/2000/svg">
<path fill-rule="evenodd" clip-rule="evenodd" d="M90.9933 169.983C111.957 169.983 132.062 161.656 146.885 146.832C161.709 132.009 170.036 111.904 170.036 90.9405C170.036 69.977 161.709 49.8721 146.885 35.0487C132.062 20.2253 111.957 11.8976 90.9933 11.8976C70.0298 11.8976 49.925 20.2253 35.1015 35.0487C20.2781 49.8721 11.9504 69.977 11.9504 90.9405C11.9504 111.904 20.2781 132.009 35.1015 146.832C49.925 161.656 70.0298 169.983 90.9933 169.983ZM90.9933 181.275C114.952 181.275 137.929 171.758 154.87 154.817C171.811 137.876 181.328 114.899 181.328 90.9405C181.328 66.9822 171.811 44.0052 154.87 27.0642C137.929 10.1231 114.952 0.605713 90.9933 0.605713C67.0351 0.605713 44.0581 10.1231 27.117 27.0642C10.176 44.0052 0.658569 66.9822 0.658569 90.9405C0.658569 114.899 10.176 137.876 27.117 154.817C44.0581 171.758 67.0351 181.275 90.9933 181.275Z" fill="#1D9BF0"/>
<path fill-rule="evenodd" clip-rule="evenodd" d="M49.0439 108.635C50.3406 107.886 51.8817 107.683 53.328 108.071C54.7743 108.458 56.0075 109.404 56.7562 110.701C60.2241 116.712 65.2144 121.703 71.2248 125.172C77.2351 128.642 84.0534 130.466 90.9931 130.462C97.9327 130.466 104.751 128.642 110.761 125.172C116.772 121.703 121.762 116.712 125.23 110.701C125.598 110.054 126.09 109.486 126.679 109.029C127.267 108.573 127.94 108.238 128.659 108.043C129.377 107.848 130.127 107.797 130.866 107.893C131.604 107.989 132.316 108.23 132.961 108.602C133.606 108.974 134.171 109.471 134.623 110.062C135.075 110.653 135.406 111.329 135.596 112.048C135.787 112.768 135.833 113.519 135.732 114.256C135.631 114.994 135.385 115.705 135.009 116.347C130.55 124.075 124.134 130.491 116.407 134.951C108.68 139.412 99.9148 141.758 90.9931 141.754C82.0713 141.758 73.3059 139.412 65.579 134.951C57.8521 130.491 51.4364 124.075 46.9775 116.347C46.2288 115.05 46.0259 113.509 46.4134 112.063C46.801 110.616 47.7472 109.383 49.0439 108.635Z" fill="#1D9BF0"/>
<path d="M79.7015 74.0027C79.7015 83.3524 74.6427 90.9405 68.4096 90.9405C62.1765 90.9405 57.1178 83.3524 57.1178 74.0027C57.1178 64.6531 62.1765 57.0649 68.4096 57.0649C74.6427 57.0649 79.7015 64.6531 79.7015 74.0027ZM124.869 74.0027C124.869 83.3524 119.81 90.9405 113.577 90.9405C107.344 90.9405 102.285 83.3524 102.285 74.0027C102.285 64.6531 107.344 57.0649 113.577 57.0649C119.81 57.0649 124.869 64.6531 124.869 74.0027Z" fill="#1D9BF0"/>
</svg>
