<svg width="182" height="159" viewBox="0 0 182 159" fill="none" xmlns="http://www.w3.org/2000/svg">
<path fill-rule="evenodd" clip-rule="evenodd" d="M158.744 11.8976H23.2423C20.2475 11.8976 17.3754 13.0872 15.2577 15.2049C13.1401 17.3225 11.9504 20.1946 11.9504 23.1894V124.816L41.8286 98.235C42.7516 97.3154 43.9641 96.7434 45.2607 96.6158C46.5572 96.4882 47.858 96.8129 48.9425 97.5349L78.9788 117.555L120.872 75.6626C121.709 74.8245 122.789 74.271 123.958 74.0805C125.127 73.89 126.327 74.0721 127.387 74.6012L170.036 96.5864V23.1894C170.036 20.1946 168.847 17.3225 166.729 15.2049C164.611 13.0872 161.739 11.8976 158.744 11.8976ZM23.2423 0.605713C17.2527 0.605713 11.5084 2.98506 7.27318 7.22032C3.03792 11.4556 0.658569 17.1998 0.658569 23.1894V136.108C0.658569 142.097 3.03792 147.842 7.27318 152.077C11.5084 156.312 17.2527 158.692 23.2423 158.692H158.744C161.71 158.692 164.647 158.107 167.387 156.972C170.127 155.838 172.616 154.174 174.713 152.077C176.811 149.98 178.474 147.49 179.609 144.75C180.744 142.01 181.328 139.074 181.328 136.108V23.1894C181.328 17.1998 178.949 11.4556 174.713 7.22032C170.478 2.98506 164.734 0.605713 158.744 0.605713H23.2423ZM68.4096 51.419C68.4096 53.6433 67.9715 55.8458 67.1203 57.9008C66.2691 59.9558 65.0215 61.823 63.4487 63.3958C61.8759 64.9686 60.0087 66.2163 57.9537 67.0675C55.8987 67.9187 53.6962 68.3568 51.4719 68.3568C49.2476 68.3568 47.0451 67.9187 44.9901 67.0675C42.9351 66.2163 41.0679 64.9686 39.4951 63.3958C37.9222 61.823 36.6746 59.9558 35.8234 57.9008C34.9722 55.8458 34.5341 53.6433 34.5341 51.419C34.5341 46.9268 36.3186 42.6187 39.4951 39.4422C42.6715 36.2658 46.9797 34.4812 51.4719 34.4812C55.964 34.4812 60.2722 36.2658 63.4487 39.4422C66.6251 42.6187 68.4096 46.9268 68.4096 51.419Z" fill="#1D9BF0"/>
</svg>
